HIERARCHY
ROOT Hips
{
	OFFSET 0.000000 88.474243 0.000000
	CHANNELS 6 Xposition Yposition Zposition Zrotation Yrotation Xrotation 
	JOINT Hips_Spine
	{
		OFFSET 0.000000 0.000000 0.000000
		CHANNELS 3 Zrotation Yrotation Xrotation
		JOINT Spine
		{
			OFFSET 0.005100 8.711998 -0.691000
			CHANNELS 3 Zrotation Yrotation Xrotation
			JOINT Spine1
			{
				OFFSET -0.009200 8.660301 -1.275000
				CHANNELS 3 Zrotation Yrotation Xrotation
				JOINT Spine2
				{
					OFFSET 0.006300 9.852501 -1.857000
					CHANNELS 3 Zrotation Yrotation Xrotation
					JOINT Spine2_Neck
					{
						OFFSET 0.000000 0.000000 0.000000
						CHANNELS 3 Zrotation Yrotation Xrotation
						JOINT Neck
						{
							OFFSET 0.016300 11.420799 -0.263300
							CHANNELS 3 Zrotation Yrotation Xrotation
							End Site #name: Head
							{
								OFFSET -0.019200 9.262405 2.362500
							}
						}
					}
					JOINT Spine2_LeftShoulder
					{
						OFFSET 0.000000 0.000000 0.000000
						CHANNELS 3 Zrotation Yrotation Xrotation
						JOINT LeftShoulder
						{
							OFFSET 5.616900 6.732201 -0.345700
							CHANNELS 3 Zrotation Yrotation Xrotation
							JOINT LeftArm
							{
								OFFSET 10.664888 -0.183372 -2.440700
								CHANNELS 3 Zrotation Yrotation Xrotation
								JOINT LeftForeArm
								{
									OFFSET 27.459126 0.000000 0.000000
									CHANNELS 3 Zrotation Yrotation Xrotation
									End Site #name: LeftHand
									{
										OFFSET 21.306858 0.000000 0.000000
									}
								}
							}
						}
					}
					JOINT Spine2_RightShoulder
					{
						OFFSET 0.000000 0.000000 0.000000
						CHANNELS 3 Zrotation Yrotation Xrotation
						JOINT RightShoulder
						{
							OFFSET -5.580300 6.737503 -0.344400
							CHANNELS 3 Zrotation Yrotation Xrotation
							JOINT RightArm
							{
								OFFSET -10.679335 -0.188484 -2.383900
								CHANNELS 3 Zrotation Yrotation Xrotation
								JOINT RightForeArm
								{
									OFFSET -27.503529 0.000000 0.000000
									CHANNELS 3 Zrotation Yrotation Xrotation
									End Site #name: RightHand
									{
										OFFSET -21.306808 0.000000 0.000000
									}
								}
							}
						}
					}
				}
			}
		}
	}
	JOINT Hips_LeftUpLeg
	{
		OFFSET 0.000000 0.000000 0.000000
		CHANNELS 3 Zrotation Yrotation Xrotation
		JOINT LeftUpLeg
		{
			OFFSET 6.857700 -6.739601 0.312100
			CHANNELS 3 Zrotation Yrotation Xrotation
			JOINT LeftLeg
			{
				OFFSET -0.367590 -34.731552 -4.572400
				CHANNELS 3 Zrotation Yrotation Xrotation
				End Site #name: LeftFoot
				{
					OFFSET 0.367590 -34.656704 -6.067400
				}
			}
		}
	}
	JOINT Hips_RightUpLeg
	{
		OFFSET 0.000000 0.000000 0.000000
		CHANNELS 3 Zrotation Yrotation Xrotation
		JOINT RightUpLeg
		{
			OFFSET -6.876100 -6.733299 0.301000
			CHANNELS 3 Zrotation Yrotation Xrotation
			JOINT RightLeg
			{
				OFFSET 0.347353 -34.795158 -4.515900
				CHANNELS 3 Zrotation Yrotation Xrotation
				End Site #name: RightFoot
				{
					OFFSET -0.347353 -34.589367 -6.070300
				}
			}
		}
	}
}
MOTION
Frames: 10
Frame Time: 0.041667
1.235365 0.137889 0.580372 -0.316897 36.078710 -7.659476 -0.000000 0.000000 0.000000 -2.737665 -1.500205 -4.560371 2.442942 -1.687723 -3.804702 0.000000 0.000000 0.000000 2.842234 -1.307283 -4.027104 3.045435 -3.616071 -3.159006 1.774853 -1.512627 -4.236746 -21.215683 0.398376 8.315357 -52.435288 8.908649 4.670709 -0.825889 -21.097367 7.701648 1.826273 -1.461194 -1.958095 9.059346 6.748443 1.590692 61.030001 0.783188 -8.538277 0.483352 42.193535 -0.613008 0.000000 0.000000 -0.000000 -9.058744 21.937620 -1.558021 -1.161502 3.977624 19.534828 0.000000 0.000000 0.000000 -6.367750 1.623999 -18.670956 4.655548 -0.786678 17.179097 
1.028553 0.113419 0.720156 -1.204582 38.680124 -8.453151 -0.000000 0.000000 0.000000 -1.668932 -1.253683 -5.204732 2.692917 -1.696055 -3.728295 0.000000 0.000000 0.000000 3.035693 -1.228190 -3.944847 2.977207 -3.731581 -2.831241 2.048675 -1.452615 -4.098362 -20.607835 0.418914 8.381972 -53.503845 9.770130 4.156689 -0.889816 -21.720274 7.626444 2.068458 -1.393619 -1.949655 9.383977 6.879128 1.652545 60.884056 0.664658 -8.453495 0.487097 42.294483 -0.617637 0.000000 -0.000000 -0.000000 -8.107952 22.462300 -0.976094 -1.536749 3.622559 19.103149 0.000000 -0.000000 0.000000 -5.446505 1.579496 -18.807051 4.425633 -1.836175 17.279412 
0.858032 0.086662 0.870489 -2.101194 40.818571 -9.282835 -0.000000 0.000000 0.000000 -0.687719 -0.850315 -5.706158 2.921951 -1.696879 -3.638309 0.000000 0.000000 0.000000 3.208151 -1.148373 -3.858838 3.016372 -3.784184 -2.489377 2.294724 -1.397701 -3.964653 -20.070313 0.399345 8.421686 -54.434646 10.635455 3.646220 -0.937463 -22.228399 7.570545 2.287600 -1.329231 -1.937155 9.693680 7.014549 1.709356 60.737274 0.586212 -8.309489 0.490983 42.355452 -0.620477 0.000000 -0.000000 -0.000000 -7.186558 22.944543 -0.310373 -1.931234 3.142371 18.538580 0.000000 -0.000000 0.000000 -4.583788 1.578801 -18.847352 4.170289 -2.985274 17.298143 
0.726642 0.058057 1.025374 -2.888611 42.388771 -10.024644 -0.000000 -0.000000 0.000000 0.215956 -0.474536 -6.004054 3.112324 -1.694510 -3.553028 0.000000 0.000000 0.000000 3.355577 -1.071897 -3.782403 3.094512 -3.801711 -2.046775 2.504660 -1.348409 -3.841735 -19.609218 0.379475 8.398818 -55.300839 11.478945 3.062770 -0.985585 -22.671087 7.514985 2.473708 -1.268725 -1.925087 9.979297 7.142823 1.758461 60.601153 0.545750 -8.096074 0.501391 42.450135 -0.621376 0.000000 -0.000000 -0.000000 -6.348571 23.251786 0.410614 -2.249345 2.706767 17.966129 0.000000 -0.000000 0.000000 -3.838365 1.622085 -18.929480 3.900894 -4.144240 17.424537 
0.635535 0.029903 1.178111 -3.481009 43.531280 -10.595562 -0.000000 -0.000000 0.000000 0.939068 -0.174780 -6.127300 3.262297 -1.686048 -3.484482 0.000000 0.000000 0.000000 3.474671 -1.003605 -3.707461 3.138649 -3.805611 -1.510005 2.677202 -1.305972 -3.733730 -19.213358 0.369531 8.343455 -56.096292 12.362304 2.496842 -1.042356 -23.132025 7.447417 2.619766 -1.210131 -1.918174 10.218232 7.247788 1.792523 60.505320 0.522409 -7.845598 0.511419 42.593486 -0.624376 0.000000 -0.000000 -0.000000 -5.668194 23.286399 1.036514 -2.461920 2.418879 17.486955 0.000000 -0.000000 0.000000 -3.217166 1.715511 -19.036782 3.689242 -5.134946 17.688519 
0.589245 0.005088 1.327523 -3.887701 44.246851 -11.004061 -0.000000 -0.000000 0.000000 1.501407 0.035093 -6.140069 3.378408 -1.675276 -3.426648 0.000000 0.000000 0.000000 3.566583 -0.941896 -3.635522 3.113043 -3.804133 -0.904779 2.813915 -1.268405 -3.637240 -18.889020 0.352627 8.285656 -56.852616 13.209114 1.956286 -1.101232 -23.686095 7.349033 2.735972 -1.158462 -1.908102 10.414906 7.329489 1.818786 60.424522 0.511117 -7.556769 0.524055 42.759931 -0.627337 0.000000 -0.000000 -0.000000 -5.132192 23.131133 1.566586 -2.684437 2.161045 17.212981 0.000000 -0.000000 0.000000 -2.709239 1.881526 -19.160720 3.719987 -5.497875 18.064557 
0.591836 -0.014436 1.471694 -4.136713 44.464247 -11.280930 -0.000000 -0.000000 0.000000 1.859290 0.135358 -6.140951 3.471830 -1.666892 -3.365937 0.000000 0.000000 0.000000 3.638256 -0.888891 -3.562258 3.020568 -3.791848 -0.238321 2.922773 -1.236533 -3.550250 -18.614649 0.299154 8.214642 -57.552727 13.972751 1.475914 -1.164779 -24.177120 7.237221 2.829381 -1.118463 -1.894064 10.576462 7.395028 1.838623 60.337471 0.511317 -7.259495 0.539915 42.926321 -0.627906 0.000000 -0.000000 -0.000000 -4.700575 22.825565 1.985685 -2.932113 1.874312 17.094033 0.000000 -0.000000 0.000000 -2.282324 2.106437 -19.287221 3.755406 -5.745940 18.533893 
0.648544 -0.027389 1.607297 -4.220888 44.069797 -11.415764 -0.000000 -0.000000 0.000000 2.170796 0.142154 -6.099490 3.544026 -1.663538 -3.295852 0.000000 0.000000 0.000000 3.694715 -0.843873 -3.481593 2.938720 -3.619254 0.234584 3.011466 -1.211279 -3.466571 -18.390140 0.223546 8.142770 -58.158256 14.580876 1.056519 -1.233258 -24.601524 7.121357 2.906981 -1.088637 -1.873053 10.697336 7.452339 1.851669 60.240546 0.489462 -6.982442 0.556708 43.090938 -0.627105 0.000000 -0.000000 -0.000000 -4.381929 22.377760 2.305204 -3.124436 1.593552 17.227230 0.000000 -0.000000 0.000000 -1.924754 2.392908 -19.414289 3.812407 -5.852187 19.083768 
0.766447 -0.034910 1.728088 -4.170584 43.115706 -11.445804 -0.000000 -0.000000 0.000000 2.466847 0.081639 -6.035809 3.598421 -1.661538 -3.211055 0.000000 0.000000 0.000000 3.738588 -0.808048 -3.391444 2.836996 -3.458043 0.682464 3.086024 -1.190708 -3.377501 -18.225060 0.157273 8.075171 -58.568595 14.888428 0.544866 -1.309015 -24.956107 7.021421 2.970463 -1.067398 -1.845261 10.777240 7.505373 1.858614 60.132113 0.449390 -6.720794 0.574421 43.258967 -0.625223 0.000000 -0.000000 -0.000000 -4.126628 21.930664 2.470435 -3.316877 1.342352 17.636491 0.000000 -0.000000 0.000000 -1.624031 2.749755 -19.517491 3.891671 -5.842609 19.703949 
0.944205 -0.037629 1.829664 -4.022076 41.703666 -11.400583 -0.000000 -0.000000 0.000000 2.750713 -0.031012 -5.971550 3.642731 -1.660175 -3.112944 0.000000 0.000000 0.000000 3.773619 -0.785458 -3.306920 2.738036 -3.289722 1.033512 3.152055 -1.180428 -3.290642 -18.128423 0.101855 8.005909 -58.889970 15.035443 0.164827 -1.392664 -25.247337 6.927282 3.024743 -1.056321 -1.813987 10.804297 7.555710 1.861215 60.019321 0.357410 -6.504829 0.594072 43.430031 -0.622857 0.000000 -0.000000 -0.000000 -3.982141 21.379977 2.530536 -3.511314 1.104306 18.179544 0.000000 -0.000000 0.000000 -1.372887 3.200015 -19.581513 3.995110 -5.707621 20.368629 
